<svg width="161" height="25" viewBox="0 0 161 25" fill="none" xmlns="http://www.w3.org/2000/svg">
<path d="M36.2406 2.1347C35.3621 -1.10416 25.9145 0.0695242 21.445 0.969206L26.7622 1.15323C29.2474 0.928312 34.9691 1.17777 34.7379 3.97496C34.4489 7.47145 31.9637 10.4159 30.8078 12.0721C29.8831 13.3971 24.2192 19.2082 21.5028 21.9481C21.4257 21.9277 20.0464 22.1322 15.1453 23.1136C10.2443 24.0951 7.09252 23.8906 6.12926 23.6657C4.3954 23.3181 1.73702 21.9481 3.2397 18.4517C4.73441 14.9737 8.76878 10.1501 10.4641 8.33024C12.5062 5.54941 15.2031 1.84026 9.88595 7.28742C3.2395 14.0964 6.70733 10.4772 3.413 14.2804C0.118668 18.0836 -0.170225 19.6172 0.0607601 21.5188C0.0681501 21.5796 0.118555 23.8498 3.75966 24.7085C6.67254 25.3956 12.7565 24.7085 15.4343 24.2791L21.0404 23.6657C23.0247 22.0913 27.7563 17.9364 30.8078 13.9124C34.6223 8.88231 37.3387 6.18327 36.2406 2.1347Z" fill="#081225"/>
<path d="M15.7812 24.4629L7.86328 1.03027H11.5622L18.5554 20.2916L23.1212 1.03027H26.8779L20.7516 24.4629H15.7812Z" fill="#081225"/>
<path d="M54.09 20L47.17 3.5H50.83L55.36 15.13L59.9 3.5H63.55L56.63 20H54.09ZM65.9688 20V3.5H75.1488V6.34H69.2088V10.31H74.9088V13.15H69.2088V17.16H75.1488V20H65.9688ZM86.0133 20.32C84.8799 20.32 83.8233 20.1033 82.8433 19.67C81.8633 19.2367 81.0066 18.6333 80.2733 17.86C79.5399 17.08 78.9666 16.17 78.5533 15.13C78.1399 14.09 77.9333 12.9633 77.9333 11.75C77.9333 10.59 78.1266 9.49667 78.5133 8.47C78.8999 7.43667 79.4566 6.52667 80.1833 5.74C80.9099 4.94667 81.7866 4.32667 82.8133 3.88C83.8399 3.42667 84.9899 3.2 86.2633 3.2C86.9833 3.2 87.7066 3.28 88.4333 3.44C89.1666 3.6 89.8699 3.83667 90.5433 4.15C91.2166 4.45667 91.8233 4.83333 92.3633 5.28L90.8433 7.79C90.2633 7.25 89.5599 6.83333 88.7333 6.54C87.9133 6.24 87.1033 6.09 86.3033 6.09C85.5166 6.09 84.8199 6.23 84.2133 6.51C83.6133 6.78333 83.1066 7.17 82.6933 7.67C82.2799 8.17 81.9666 8.75667 81.7533 9.43C81.5399 10.0967 81.4333 10.8233 81.4333 11.61C81.4333 12.47 81.5533 13.25 81.7933 13.95C82.0333 14.65 82.3666 15.2533 82.7933 15.76C83.2266 16.2667 83.7299 16.6567 84.3033 16.93C84.8833 17.2033 85.5066 17.34 86.1733 17.34C86.7066 17.34 87.2199 17.2533 87.7133 17.08C88.2133 16.9 88.6566 16.65 89.0433 16.33C89.4299 16.01 89.7366 15.6333 89.9633 15.2C90.1899 14.7667 90.3033 14.2933 90.3033 13.78V13.53H85.9733V11.02H93.6033V13.52C93.6033 14.5267 93.3933 15.4467 92.9733 16.28C92.5599 17.1067 91.9933 17.8233 91.2733 18.43C90.5533 19.03 89.7399 19.4967 88.8333 19.83C87.9266 20.1567 86.9866 20.32 86.0133 20.32ZM94.8072 20L101.437 3.5H104.447L111.067 20H107.577L106.177 16.24H99.6972L98.2972 20H94.8072ZM100.807 13.4H105.077L102.937 7.87L100.807 13.4ZM113.508 20V3.5H119.128C120.201 3.5 121.154 3.68667 121.988 4.06C122.821 4.43333 123.478 4.99 123.958 5.73C124.438 6.46333 124.678 7.38 124.678 8.48C124.678 9.57333 124.438 10.5067 123.958 11.28C123.478 12.0533 122.821 12.6467 121.988 13.06C121.154 13.4667 120.201 13.67 119.128 13.67H116.748V20H113.508ZM116.748 11.08H118.128C118.694 11.08 119.214 10.9967 119.688 10.83C120.168 10.6633 120.554 10.3967 120.848 10.03C121.141 9.66333 121.288 9.18 121.288 8.58C121.288 7.97333 121.141 7.49 120.848 7.13C120.554 6.76333 120.168 6.5 119.688 6.34C119.214 6.17333 118.694 6.09 118.128 6.09H116.748V11.08ZM134.788 20.32C133.635 20.32 132.555 20.1 131.548 19.66C130.541 19.22 129.658 18.61 128.898 17.83C128.138 17.0433 127.541 16.1333 127.108 15.1C126.681 14.06 126.468 12.9467 126.468 11.76C126.468 10.5733 126.681 9.46333 127.108 8.43C127.541 7.39 128.138 6.48 128.898 5.7C129.658 4.91333 130.541 4.3 131.548 3.86C132.555 3.42 133.635 3.2 134.788 3.2C135.941 3.2 137.021 3.42 138.028 3.86C139.035 4.3 139.918 4.91333 140.678 5.7C141.438 6.48 142.031 7.39 142.458 8.43C142.891 9.46333 143.108 10.5733 143.108 11.76C143.108 12.9467 142.891 14.06 142.458 15.1C142.031 16.1333 141.438 17.0433 140.678 17.83C139.918 18.61 139.035 19.22 138.028 19.66C137.021 20.1 135.941 20.32 134.788 20.32ZM134.778 17.2C135.485 17.2 136.131 17.0667 136.718 16.8C137.305 16.5333 137.815 16.1567 138.248 15.67C138.681 15.1833 139.018 14.61 139.258 13.95C139.498 13.2833 139.618 12.5533 139.618 11.76C139.618 10.9667 139.498 10.24 139.258 9.58C139.018 8.91333 138.681 8.33667 138.248 7.85C137.815 7.36333 137.305 6.98667 136.718 6.72C136.131 6.45333 135.485 6.32 134.778 6.32C134.085 6.32 133.441 6.45333 132.848 6.72C132.261 6.98667 131.751 7.36333 131.318 7.85C130.885 8.33667 130.548 8.91333 130.308 9.58C130.075 10.24 129.958 10.9667 129.958 11.76C129.958 12.5533 130.075 13.2833 130.308 13.95C130.548 14.61 130.885 15.1833 131.318 15.67C131.751 16.1567 132.261 16.5333 132.848 16.8C133.441 17.0667 134.085 17.2 134.778 17.2ZM146.398 20V3.5H150.928C152.102 3.5 153.192 3.71 154.198 4.13C155.205 4.55 156.085 5.13667 156.838 5.89C157.598 6.64333 158.188 7.52 158.608 8.52C159.035 9.52 159.248 10.6 159.248 11.76C159.248 12.9267 159.038 14.01 158.618 15.01C158.198 16.0033 157.608 16.8767 156.848 17.63C156.095 18.3767 155.212 18.96 154.198 19.38C153.192 19.7933 152.102 20 150.928 20H146.398ZM149.638 17.1H150.568C151.315 17.1 152.005 16.9667 152.638 16.7C153.272 16.4333 153.822 16.06 154.288 15.58C154.755 15.1 155.118 14.5367 155.378 13.89C155.638 13.2367 155.768 12.5233 155.768 11.75C155.768 10.9833 155.638 10.2767 155.378 9.63C155.118 8.97667 154.755 8.41 154.288 7.93C153.822 7.44333 153.272 7.06667 152.638 6.8C152.005 6.53333 151.315 6.4 150.568 6.4H149.638V17.1Z" fill="#081225"/>
</svg>
